<?xml version="1.0" encoding="iso-8859-1"?>
<!-- Generator: Adobe Illustrator 18.1.1, SVG Export Plug-In . SVG Version: 6.00 Build 0)  -->
<svg version="1.1" id="Capa_1" xmlns="http://www.w3.org/2000/svg" xmlns:xlink="http://www.w3.org/1999/xlink" x="0px" y="0px"
	 viewBox="0 0 46.202 46.202" style="enable-background:new 0 0 46.202 46.202;" xml:space="preserve">
<g>
	<path style="fill:#010002;" d="M7.346,42.479c0-1.972,0-3.57,0-3.57H3.674C1.645,38.91,0,40.507,0,42.479s0,3.57,0,3.57h3.674
		C5.706,46.049,7.346,44.451,7.346,42.479z"/>
	<path style="fill:#010002;" d="M7.346,32.891c0-1.972,0-3.57,0-3.57H3.674C1.645,29.321,0,30.919,0,32.891s0,3.57,0,3.57h3.674
		C5.706,36.461,7.346,34.864,7.346,32.891z"/>
	<path style="fill:#010002;" d="M7.346,23.305c0-1.972,0-3.571,0-3.571H3.674C1.645,19.734,0,21.333,0,23.305s0,3.57,0,3.57h3.674
		C5.706,26.875,7.346,25.277,7.346,23.305z"/>
	<path style="fill:#010002;" d="M9.69,42.479c0,1.972,0,3.57,0,3.57h3.672c2.029,0,3.672-1.598,3.672-3.57s0-3.57,0-3.57h-3.672
		C11.334,38.91,9.69,40.507,9.69,42.479z"/>
	<path style="fill:#010002;" d="M17.034,29.322h-3.672c-2.027,0-3.672,1.598-3.672,3.57s0,3.57,0,3.57h3.672
		c2.029,0,3.672-1.598,3.672-3.57C17.034,30.919,17.034,29.322,17.034,29.322z"/>
	<path style="fill:#010002;" d="M17.034,19.733h-3.672c-2.027,0-3.672,1.599-3.672,3.571s0,3.57,0,3.57h3.672
		c2.029,0,3.672-1.598,3.672-3.57S17.034,19.733,17.034,19.733z"/>
	<path style="fill:#010002;" d="M17.034,9.943h-3.672c-2.027,0-3.672,1.598-3.672,3.57s0,3.57,0,3.57h3.672
		c2.029,0,3.672-1.598,3.672-3.57S17.034,9.943,17.034,9.943z"/>
	<path style="fill:#010002;" d="M19.276,42.479c0,1.972,0,3.57,0,3.57h3.674c2.031,0,3.672-1.598,3.672-3.57s0-3.57,0-3.57H22.95
		C20.922,38.91,19.276,40.507,19.276,42.479z"/>
	<path style="fill:#010002;" d="M26.622,29.322H22.95c-2.027,0-3.674,1.598-3.674,3.57s0,3.57,0,3.57h3.674
		c2.031,0,3.672-1.598,3.672-3.57C26.622,30.919,26.622,29.322,26.622,29.322z"/>
	<path style="fill:#010002;" d="M26.622,19.733H22.95c-2.027,0-3.674,1.599-3.674,3.571s0,3.57,0,3.57h3.674
		c2.031,0,3.672-1.598,3.672-3.57S26.622,19.733,26.622,19.733z"/>
	<path style="fill:#010002;" d="M26.622,9.943H22.95c-2.027,0-3.674,1.598-3.674,3.57s0,3.57,0,3.57h3.674
		c2.031,0,3.672-1.598,3.672-3.57S26.622,9.943,26.622,9.943z"/>
	<path style="fill:#010002;" d="M26.622,0.152H22.95c-2.027,0-3.674,1.598-3.674,3.57s0,3.57,0,3.57h3.674
		c2.031,0,3.672-1.598,3.672-3.57S26.622,0.152,26.622,0.152z"/>
	<path style="fill:#010002;" d="M29.071,42.479c0,1.972,0,3.57,0,3.57h3.67c2.029,0,3.672-1.598,3.672-3.57s0-3.57,0-3.57h-3.672
		C30.713,38.91,29.071,40.507,29.071,42.479z"/>
	<path style="fill:#010002;" d="M36.413,29.322h-3.672c-2.027,0-3.67,1.598-3.67,3.57s0,3.57,0,3.57h3.67
		c2.029,0,3.672-1.598,3.672-3.57C36.413,30.919,36.413,29.322,36.413,29.322z"/>
	<path style="fill:#010002;" d="M38.86,42.479c0,1.972,0,3.57,0,3.57h3.674c2.025,0,3.668-1.598,3.668-3.57s0-3.57,0-3.57h-3.668
		C40.504,38.91,38.86,40.507,38.86,42.479z"/>
	<path style="fill:#010002;" d="M38.86,32.891c0,1.972,0,3.57,0,3.57h3.674c2.025,0,3.668-1.598,3.668-3.57s0-3.57,0-3.57h-3.668
		C40.504,29.322,38.86,30.919,38.86,32.891z"/>
	<path style="fill:#010002;" d="M38.86,23.305c0,1.972,0,3.57,0,3.57h3.674c2.025,0,3.668-1.598,3.668-3.57s0-3.571,0-3.571h-3.668
		C40.504,19.733,38.86,21.332,38.86,23.305z"/>
</g>
<g>
</g>
<g>
</g>
<g>
</g>
<g>
</g>
<g>
</g>
<g>
</g>
<g>
</g>
<g>
</g>
<g>
</g>
<g>
</g>
<g>
</g>
<g>
</g>
<g>
</g>
<g>
</g>
<g>
</g>
</svg>
